<svg width="700" height="700" viewBox="0 0 700 700" fill="none" xmlns="http://www.w3.org/2000/svg">
<rect width="700" height="700" fill="white"/>
<path d="M237.87 78.6963C280.435 60.3875 327.401 52.3258 373.626 55.7823C419.058 59.2387 463.564 73.7252 502.388 97.5542C534.014 117.073 562.062 142.508 584.092 172.477C606.802 202.985 623.627 237.854 633.285 274.645C646.755 326.003 646.988 380.991 632.329 432.126C653.718 435.125 673.979 444.955 690.356 458.923C686.615 463.091 682.925 467.3 679.021 471.326C666.06 459.228 648.249 453.566 630.855 452.183C614.274 450.699 597.256 455.213 583.756 464.982C590.171 467.361 596.931 465.033 603.488 464.718C613.319 464.067 623.129 466.334 632.095 470.289C629.137 468.022 625.691 466.548 622.427 464.809C633.529 465.572 645.128 469.445 652.539 478.147C655.518 481.431 656.809 485.751 658.13 489.889C658.639 485.578 658.923 481.115 657.764 476.897C656.321 472.23 652.163 469.313 648.696 466.212C652.844 468.073 656.961 470.258 660.204 473.511C663.508 476.887 665.45 481.278 667.33 485.558C662.929 490.428 658.618 495.389 653.698 499.75C652.325 499.587 651.512 498.174 650.496 497.381C638.978 485.345 622.793 478.472 606.396 476.5C593.261 474.975 580.239 478.452 567.826 482.376C564.878 483.545 561.726 483.017 558.677 482.834C546.061 482.193 533.292 483.078 521.073 486.422C501.93 491.698 483.693 500.116 467.041 510.881C460.941 515.212 454.211 519.004 449.342 524.768C460.362 518.76 471.778 513.453 483.591 509.184C508.294 499.526 535.702 495.643 561.889 500.817C554.377 495.653 545.095 493.426 536.078 493.182C544.983 491.597 553.919 493.843 562.753 494.921C571.15 496.049 580.056 498.469 585.982 504.934C590.171 509.57 591.564 515.832 592.6 521.8C597.053 512.071 592.814 500.156 585.047 493.376C592.245 496.232 599.218 501.325 601.485 509.082C603.885 515.263 602.045 521.932 599.34 527.676C606.264 521.83 609.059 511.288 605.196 502.972C603.997 500.106 601.699 497.971 599.503 495.877C604.18 497.33 609.09 499.069 612.414 502.871C615.169 505.809 616.318 509.743 617.995 513.321C618.625 505.758 615.291 497.595 608.612 493.64C604.911 491.22 600.621 490.031 596.403 488.882C608.246 488.496 619.489 494.789 627.409 503.277C630.723 506.693 632.238 511.268 633.559 515.72C635.857 511.227 636.05 505.666 633.661 501.173C632.095 498.052 629.127 496.059 626.738 493.64C631.129 496.202 636.101 498.448 638.917 502.911C640.614 505.626 642.068 508.706 642.2 511.949C632.146 522.237 621.563 532.077 610.157 540.861C582.018 519.909 545.42 511.197 510.765 515.964C491.795 518.638 473.598 525.327 456.6 534.029C451.761 536.5 446.943 539.173 442.846 542.792C459.996 534.283 478.752 529.302 497.701 526.974C515.746 524.707 534.492 525.815 551.632 532.23C559.836 535.463 568.05 540.058 573.001 547.611C575.166 551.047 575.806 555.103 576.833 558.977C578.673 552.511 577.097 545.547 573.255 540.139C580.188 543.402 585.83 548.922 590.12 555.215C585.911 558.326 581.652 561.355 577.27 564.222C563.77 551.962 547.301 542.508 529.216 539.255C513.875 536.123 497.895 537.679 482.91 541.888C473.506 544.429 464.499 548.221 455.472 551.85C466.116 552.724 476.81 552.775 487.474 553.395C495.241 553.731 503.018 553.782 510.775 553.212C516.579 552.806 522.476 553.151 528.036 554.991C534.217 556.527 539.331 560.461 544.485 564.009C541.771 558.895 536.749 555.835 531.676 553.477C544.333 555.683 555.607 563.084 564.41 572.243C537.776 588.254 509.789 603.148 479.189 609.827C458.562 614.594 436.604 614.727 416.252 608.576C402.416 604.266 390.583 595.686 377.672 589.363C356.832 579.756 333.196 576.391 310.475 579.491C288.476 582.562 268.856 593.764 247.588 599.467C228.812 604.967 208.694 606.899 189.46 602.649C186.196 601.917 183.695 599.549 180.727 598.176C146.051 581.972 114.364 559.871 85.6144 534.71C77.3291 527.36 69.3387 519.675 61.643 511.705C61.0941 502.718 66.8785 493.853 75.7127 491.515C72.6019 494.189 69.2573 497.117 68.2204 501.275C67.3766 505.676 67.9663 510.404 70.1418 514.348C71.3312 510.088 71.6362 505.331 74.6656 501.864C85.0247 489.726 101.443 483.962 117.169 485.04C110.775 486.88 104.086 489.075 99.379 494.026C95.5363 498.032 93.2388 503.623 93.9809 509.224C95.4143 503.592 98.9724 498.448 104.31 495.937C109.433 493.132 115.35 492.745 121.022 492.013C116.824 494.89 111.639 497.361 109.758 502.464C108.315 507.171 108.091 513.047 112.076 516.656C111.395 512.589 110.663 508.076 113.032 504.385C116.783 498.652 122.974 494.911 129.379 492.776C126.309 495.49 122.995 498.103 121.266 501.946C126.339 498.347 132.052 495.643 138.121 494.25C154.621 490.316 172.371 488.984 188.677 494.494C197.379 497.422 205.562 501.976 212.526 507.984C207.494 510.088 202.797 512.884 197.958 515.344C187.64 509.011 176.528 503.074 164.187 502.301C153.391 501.173 142.788 504.66 133.323 509.611C125.384 513.331 117.932 518.272 111.954 524.738C107.278 529.77 104.564 537.12 106.485 543.921C108.071 537.994 109.911 531.772 114.547 527.452C124.164 518.313 138.345 514.765 151.297 516.493C143.316 517.764 134.899 518.882 128.271 523.924C122.008 528.194 119.314 537.089 122.71 543.972C123.218 540.19 123.076 536.154 125.089 532.769C128.2 526.771 134.401 523.02 140.866 521.637C155.892 517.916 172.218 521.291 185.149 529.617C191.137 533.267 195.986 538.38 200.998 543.209C196.057 534.975 189.826 527.32 181.794 521.922C176.955 518.384 171.506 515.842 166.047 513.413C181.418 515.578 193.394 526.872 203.123 538.177C214.976 551.921 228.263 566.225 246.409 571.115C240.493 564.852 233.285 559.759 228.446 552.531C226.962 550.468 226.433 547.957 225.904 545.547C226.118 544.907 226.555 543.636 226.769 542.996C229.951 553.355 239.862 559.851 249.886 562.504C265.135 566.459 281.116 564.812 296.507 562.616C311.919 560.247 327.503 557.96 343.128 558.987C366.876 560.207 389.586 567.648 412.379 573.737C399.864 572.975 387.848 567.811 375.181 568.878C385.439 573.117 395.747 577.54 406.686 579.746C415.245 581.321 423.958 582.46 432.68 581.891C443.801 581.474 454.832 578.068 465.984 579.756C472.815 580.874 480.074 583.873 483.499 590.298C486 595.218 484.394 600.901 482.981 605.892C486 602.741 489.009 598.99 489.03 594.385C488.887 588.773 485.136 583.995 480.917 580.65C477.319 577.712 472.663 576.889 468.423 575.334C475.041 572.823 482.402 574.734 488.216 578.343C493.269 581.555 496.481 586.841 498.85 592.209C498.474 582.531 490.829 574.551 482.086 571.298C474.848 568.197 466.858 568.899 459.203 568.878C473.73 561.406 491.795 564.293 505.072 573.128C496.014 563.287 482.33 558.844 469.206 558.783C455.025 558.6 440.802 557.197 426.641 558.661C423.886 558.895 421.152 559.312 418.397 559.363C415.774 559.363 413.487 557.919 411.25 556.74C397.719 549.309 384.259 541.755 370.861 534.1C354.534 524.941 338.187 515.629 320.692 508.858C296.659 499.404 270.106 496.68 244.61 500.593C240.848 501.081 237.219 502.301 233.448 502.616C219.978 492.583 204.678 483.596 187.64 481.919C176.295 480.658 165.102 483.474 153.991 485.253C139.301 477.232 123.3 469.892 106.19 470.218C84.6384 471.336 63.9609 483.352 52.1989 501.437C49.0982 498.662 46.0891 495.785 43.3037 492.684C40.386 489.421 36.9296 486.544 34.7846 482.671C37.6209 474.528 44.3812 468.245 52.4022 465.297C49.1084 467.696 45.7537 470.218 43.7103 473.827C40.9553 478.422 41.3315 483.982 41.2705 489.126C44.1373 484.43 45.6113 478.757 49.942 475.087C56.3364 469.496 63.9609 465.501 71.5955 461.892C67.2648 465.368 62.7715 468.815 59.6098 473.461C69.3895 465.013 82.0969 460.062 95.0585 460.042C112.056 460.042 128.403 465.694 143.794 472.464C149.121 474.853 154.265 477.669 159.856 479.428C158.667 477.374 156.268 476.561 154.499 475.118C139.545 463.925 123.178 454.064 105.001 449.164C88.8776 445.037 71.504 442.465 55.3198 447.731C43.0698 451.868 31.7755 459.015 22.7786 468.306C19.3222 464.718 16.0996 460.885 13.2734 456.778C23.5207 449.51 35.0997 444.152 47.3904 441.489C71.2295 436.121 96.5427 438.541 119.386 446.999C139.036 453.983 157.416 464.677 178.023 468.845C181.672 469.597 185.363 470.38 189.114 470.248C173.662 464.687 160.69 454.359 146.569 446.267C129.145 435.786 109.667 427.266 88.9793 427.277C65.8009 427.246 43.019 434.606 22.9108 445.85C18.3971 448.107 14.8288 452.021 10 453.617C10.6608 451.644 12.1247 450.201 13.6902 448.93C28.99 435.836 47.4514 426.453 67.1021 422.011C61.9887 400.55 59.6607 378.49 59.1422 356.461C58.9186 302.083 72.8459 247.441 100.721 200.617C132.113 146.93 180.656 103.267 237.87 78.6963ZM294.321 86.6868C246.013 97.2898 201.049 122.146 166.027 157.015C132.408 190.054 107.908 232.09 94.845 277.329C82.0664 323.36 80.6229 372.757 92.2324 419.195C111.903 419.083 130.517 427.114 146.966 437.3C151.612 435.603 155.21 431.668 158.677 428.212C167.074 418.392 172.289 405.948 173.987 393.18C175.532 382.526 177.037 371.862 179.487 361.381C174.129 368.934 167.877 375.847 162.916 383.695C158.209 390.903 154.092 398.497 150.798 406.457C148.979 410.472 147.789 414.783 145.512 418.575C150.676 399.351 160.588 381.652 172.981 366.159C175.614 362.642 179.05 359.622 180.971 355.647C183.655 343.367 187.721 331.391 189.734 318.969C169.046 332.245 148.714 347.281 134.553 367.725C128.637 375.939 124.387 385.169 120.534 394.471C120.758 392.428 121.327 390.445 122.049 388.524C127.966 372.574 137.898 358.301 149.985 346.396C162.164 334.533 175.888 324.316 190.496 315.654C192.479 306.119 193.648 296.441 195.132 286.824C187.05 288.776 178.826 290.097 170.754 292.08C150.504 296.715 130.609 303.191 111.944 312.371C110.063 313.245 108.152 314.069 106.16 314.648C133.404 298.484 164.482 290.189 195.376 284.293C196.83 272.632 198.528 260.931 201.994 249.667C205.451 237.031 211.184 225.137 218.158 214.097C216.938 208.688 213.726 203.91 212.831 198.4C211.713 191.569 212.089 184.178 215.434 177.997C219.042 170.912 226.403 166.256 234.23 165.412C240.259 164.304 246.074 166.581 251.695 168.411C278.005 153.142 307.964 144.877 338.106 141.746C357.665 139.631 377.448 141.258 396.784 144.582C419.566 148.679 441.88 156.11 462.019 167.628C463.452 168.574 465.201 168.95 466.766 168.014C474.005 164.812 482.513 163.897 489.955 166.988C498.809 170.393 505.031 179.258 505.59 188.682C506.597 197.435 502.927 205.639 499.43 213.405C507.613 226.113 514.313 240.02 517.159 254.943C519.416 266.014 519.09 277.37 518.907 288.603C537.958 293.056 556.715 298.952 574.617 306.881C588.321 313.194 602.065 319.955 613.969 329.307C610.798 327.996 607.992 325.983 605.064 324.224C578.399 308.457 548.684 298.85 518.897 290.921C519.141 297.081 518.958 303.272 519.528 309.423C516.762 308 513.835 306.881 511.202 305.234C510.409 299.592 510.571 293.828 510.51 288.145C508.691 287.769 506.861 287.434 505.051 287.119C505.346 292.507 505.061 297.925 505.631 303.313C504.075 301.625 502.042 300.101 501.605 297.712C500.182 291.236 499.389 284.638 498.576 278.061C498.403 280.206 498.474 282.371 498.83 284.496C497.935 289.619 498.382 294.855 499.064 299.968C478.416 290.555 455.675 287.444 433.483 283.784C434.062 282.951 434.276 281.1 435.709 281.599C446.465 283.103 457.129 285.157 467.763 287.383C466.848 283.113 465.119 279.077 462.873 275.357C455.696 262.741 443.181 254.679 431.653 246.465C422.646 239.816 412.694 234.164 405.567 225.361C406.584 228.888 408.536 232.019 410.437 235.12C405.547 231.582 401.267 227.292 396.713 223.348C397.262 225.594 397.851 227.882 398.339 230.169C392.951 227.241 388.946 222.585 384.666 218.316C386.222 222.473 389.129 225.909 391.101 229.854C385.988 227.333 380.864 224.374 377.235 219.871C374.785 216.872 373.412 213.212 371.918 209.685C371.349 212.45 370.952 215.235 370.566 218.031C368.614 215.276 367.099 212.267 365.859 209.146C364.192 211.891 362.738 214.768 360.99 217.472C361.02 215.357 361.173 213.273 361.264 211.179C360.186 213.09 359.211 215.052 358.153 216.974C354.87 223.246 348.343 226.753 342.488 230.22C344.541 226.418 346.625 222.636 348.445 218.722C343.077 222.351 338.34 226.784 333.43 230.992C334.202 228.603 335.107 226.265 335.88 223.876C330.39 226.997 326.842 232.497 321.505 235.842C323.782 232.141 325.887 228.278 326.751 223.968C316.066 236.391 301.6 244.452 288.801 254.394C277.863 262.537 266.568 271.941 262.482 285.502C270.614 283.489 278.991 283.032 287.266 281.873C291.505 281.355 295.775 280.897 300.065 281.121C299.831 281.558 299.364 282.412 299.13 282.849C280.79 285.777 262.055 286.753 244.132 291.917C234.82 294.357 225.904 298.037 216.928 301.473C217.802 295.201 219.093 289.01 220.517 282.839C219.408 283.276 218.372 283.835 217.406 284.516C215.078 290.575 214.63 297.112 213.482 303.445C212.343 304.197 211.194 304.94 210.056 305.672C209.019 298.576 209.466 291.358 210.452 284.293C207.911 284.902 205.349 285.34 202.777 285.695C202.147 294.367 201.791 303.12 199.758 311.619C204.627 308.996 209.568 306.454 214.641 304.248C214.366 311.222 216.958 317.83 217.416 324.733C215.322 326.186 213.248 327.65 211.154 329.104C210.778 322.557 208.876 316.203 208.775 309.636C205.735 311.446 202.309 312.656 199.442 314.729C197.399 324.59 196.464 334.705 193.922 344.505C196.779 341.232 200.266 338.64 203.468 335.742C203.062 329.358 201.913 322.933 202.736 316.519C205.013 321.876 207.28 327.721 206.853 333.628C207.372 334.085 207.89 334.543 208.419 335.01C208.246 336.088 207.911 338.253 207.738 339.331C206.935 352.669 200.896 365.58 191.655 375.156C193.363 371.323 195.986 367.877 196.82 363.689C198.629 355.292 200.998 347.016 202.462 338.548C199.991 342.574 196.017 345.217 192.763 348.521C190.761 357.193 189.358 365.986 187.691 374.729C185.668 386.694 183.157 398.639 182.699 410.798C185.596 398.263 191.239 386.593 197.186 375.268C203.814 364.644 209.059 352.862 210.635 340.358C210.676 337.623 211.601 334.37 209.608 332.103C224.563 323.045 240.177 315.095 256.362 308.477C271.417 301.819 287.063 296.065 303.359 293.361C302.454 296.492 298.723 296.36 296.182 297.285C284.084 300.009 272.475 304.391 260.835 308.579C261.363 311.629 262.126 314.628 262.939 317.617C250.669 324.397 238.581 331.727 228.1 341.12C214.803 352.557 204.322 366.952 195.854 382.221C189.256 395.305 182.994 408.897 180.666 423.475C178.684 433.691 174.902 443.43 172.554 453.535C173.794 452.61 174.8 451.421 175.451 450.018C179.619 441.814 182.445 433 184.875 424.146C190.537 403.377 196.931 382.221 209.761 364.624C219.429 351.662 231.608 340.622 244.935 331.524C261.211 321.164 278.127 311.619 296.08 304.452C300.878 302.784 305.565 300.477 310.709 300.04C307.059 303.679 301.864 304.828 297.28 306.8C287.561 310.439 278.269 315.126 269.15 320.056C266.04 321.591 263.864 324.397 260.987 326.258C252.661 331.89 243.512 337.054 237.595 345.42C240.604 343.936 243.034 341.588 245.596 339.473C249.327 336.302 253.434 333.628 257.419 330.802C261.404 328.169 265.338 325.139 270.106 324.092C269.486 326.451 267.046 327.274 265.267 328.565C257.144 333.455 249.784 339.443 242.556 345.532C218.148 363.912 202.299 392.133 196.027 421.767C195.366 425.864 194.207 430.062 195.061 434.22C196.474 429.218 196.81 423.983 198.284 419.002C203.58 399.198 212.984 380.381 226.26 364.715C237.605 351.256 251.563 340.266 266.09 330.446C266.223 331.33 266.497 333.089 266.639 333.963C267.788 330.741 271.987 330.568 274.437 328.596C282.265 322.964 290.509 317.921 299.12 313.581C304.243 311.049 309.265 307.989 314.968 306.993C314.135 308.853 312.346 309.88 310.597 310.724C297.513 316.935 284.41 323.513 273.217 332.845C279.845 334.39 286.575 335.559 293.376 336.007C300.177 327.061 308.472 319.121 317.937 312.981C318.831 312.188 320.041 312.574 321.098 312.595C318.659 315.482 315.334 317.352 312.437 319.721C306.195 324.601 301.143 330.761 295.297 336.068C310.933 335.61 326.171 329.846 338.482 320.26C345.324 314.984 351.617 309.036 358.194 303.435C361.457 300.538 365.402 297.305 365.168 292.456C365.046 287.576 366.154 281.883 363.084 277.695C355.226 269.399 341.928 271.819 333.542 264.337C329.496 260.575 330.055 254.15 332.728 249.759C336.785 243.1 344.094 239.247 351.322 236.98C364.975 232.975 380.335 233.778 392.941 240.64C398.431 243.954 403.493 249.261 404.256 255.889C404.815 259.508 403.036 263.127 400.22 265.343C392.657 270.884 382.572 270.355 374.643 274.991C370.424 277.237 371.023 282.391 370.973 286.427C371.135 290.911 369.976 296.146 373.412 299.745C380.01 307.39 387.96 313.794 395.971 319.914C408.099 329.135 422.453 336.962 438.119 336.596C431.917 330.293 425.503 324.133 418.204 319.08C415.367 317.007 412.165 315.329 409.908 312.574C412.46 312.788 414.808 313.896 416.882 315.36C425.421 321.144 433.463 327.762 440.213 335.6C445.286 337.45 450.155 333.811 455.015 332.743C451.436 330.69 448.254 328.067 444.757 325.892C436.726 320.473 427.871 316.468 419.515 311.588C418.071 310.795 416.872 309.657 415.754 308.488C421.081 308.609 425.36 312.178 429.966 314.414C439.542 319.396 448.834 324.987 457.322 331.676C457.881 331.483 458.979 331.097 459.528 330.903C461.195 328.372 463.981 327.152 466.583 325.82C460.27 322.273 454.313 318.125 447.848 314.841C438.81 310.023 428.878 306.932 420.237 301.371C427.668 301.788 434.144 305.844 440.843 308.64C451.162 313.103 460.616 319.223 470.172 325.068C478.478 331.503 487.739 336.596 495.983 343.123C496.797 342.655 497.62 342.208 498.454 341.761C503.567 344.516 507.999 348.348 513.154 351.042C515.939 352.364 518.094 354.59 520.565 356.389C521.439 351.367 519.955 346.386 519.497 341.405C518.918 338.894 519.517 335.549 516.986 333.974C513.296 331.595 509.24 329.846 505.6 327.386C509.961 334.777 512.218 343.133 514.902 351.225C511.771 348.409 506.363 346.986 505.793 342.198C504.807 336.901 503.72 331.615 503.303 326.237C501.503 325.322 499.704 324.387 497.925 323.462C498.962 329.216 499.775 335.021 501.188 340.703C493.676 336.942 487.2 331.483 479.921 327.335C473.852 323.665 466.787 321.398 461.948 315.97C462.903 315.99 464.814 316.041 465.77 316.061C465.689 315.532 465.536 314.475 465.455 313.947C466.116 314.048 467.427 314.252 468.078 314.353C468.464 313.682 469.237 312.33 469.613 311.659C466.39 308.843 462.242 307.573 458.339 306.048C450.796 302.967 443.029 300.487 435.262 298.057C432.721 297.274 430.199 296.309 428.105 294.641C430.992 294.58 433.91 294.855 436.685 295.76C449.098 299.501 461.389 303.964 472.754 310.297C481.172 314.13 489.691 317.789 498.108 321.652C504.909 325.027 511.202 329.399 518.247 332.306C513.631 326.38 514.069 318.531 511.995 311.68C509.077 308.396 504.35 307.44 500.7 305.102C502.388 310.775 503.343 316.63 504.665 322.395C500.06 317.678 498.698 310.998 495.902 305.245C495.129 303.557 493.421 302.642 492.029 301.585C492.618 307.359 494.174 312.971 496.044 318.45C488.399 313.326 479.647 310.195 471.199 306.719C469.765 305.163 471.788 301.483 469.074 300.772C457.393 295.699 444.767 293.442 432.568 289.985C432.639 289.406 432.782 288.237 432.853 287.657C445.682 290.484 458.379 294.062 470.528 299.114C470.345 296.878 470.121 294.641 469.897 292.415C479.626 295.516 489.375 298.657 498.769 302.693C514.516 308.914 530.273 315.522 544.516 324.804C561.178 334.949 576.701 347.352 588.89 362.682C593.282 368.497 597.714 374.475 600.337 381.337C597.175 377.494 595.152 372.868 592.052 368.985C580.218 353.035 564.441 340.5 547.85 329.795C538.995 323.828 529.348 319.182 520.178 313.743C522.506 321.124 523.818 328.769 525.709 336.271C523.787 335.193 521.876 334.065 520.087 332.794C519.477 333.191 518.877 333.608 518.287 334.024C533.648 342.676 547.169 354.265 559.094 367.176C572.157 381.377 582.038 398.487 587.69 416.938C587.518 416.968 587.182 417.029 587.009 417.06C583.105 407.016 578.815 397.053 572.767 388.087C560.761 369.524 543.916 354.915 526.939 341.08C528.474 347.921 529.307 354.885 530.171 361.828C527.315 359.216 524.743 356.166 521.205 354.438C522.781 359.805 528.738 361.757 532.113 365.803C547.301 382.343 559.602 402.106 565.183 424.013C565.041 424.034 564.736 424.095 564.583 424.115C557.874 402.553 545.42 383.126 530.141 366.637C531.391 373.722 530.995 381.001 532.022 388.087C539.199 399.971 546.173 412.373 549.253 426.057C544.272 413.441 538.894 400.835 530.964 389.744C533.424 399.757 535.163 410.005 539.148 419.591C542.574 428.263 547.24 436.853 554.641 442.759C558.128 446.104 561.97 449.032 565.762 452.01C577.972 443.288 591.381 435.877 606.192 432.766C610.96 417.568 614.183 401.902 616.145 386.105C620.974 344.058 616.836 300.802 602.726 260.83C589.398 222.595 567.47 187.381 539.026 158.56C511.425 130.807 477.705 109.113 440.853 95.8971C394.222 78.92 342.711 75.982 294.321 86.6868ZM228.182 173.321C217.202 178.678 214.661 195.452 223.444 203.9C225.081 200.159 222.489 196.591 222.255 192.87C221.665 187.492 223.526 181.647 227.744 178.109C231.709 174.937 237.311 174.51 241.997 176.188C243.461 175.192 244.884 174.134 246.297 173.047C240.493 170.973 233.793 170.332 228.182 173.321ZM471.493 173.402C472.673 174.358 473.872 175.324 475.082 176.269C478.457 175.446 482.036 174.47 485.472 175.598C491.958 177.469 496.024 184.31 495.81 190.867C496.004 195.157 494.143 199.275 494.774 203.585C504.086 194.974 500.192 176.96 488.338 172.528C482.9 170.19 476.871 171.654 471.493 173.402ZM259.686 179.299C265.674 177.581 271.834 176.279 278.086 176.249C291.333 176.015 304.162 180.315 316.066 185.795C315.019 184.727 312.935 182.613 311.888 181.545C318.913 185.297 326.039 189.119 331.946 194.548C328.692 184.361 318.821 177.286 308.533 175.446C292.349 172.548 274.945 172.508 259.686 179.299ZM421.335 176.564C413.121 178.445 406.035 184.412 402.69 192.138C407.651 188.722 412.389 184.473 418.437 183.182C423.876 182.115 429.04 179.959 434.52 179.085C443.059 177.672 451.731 178.8 460.219 180.031C447.858 175.629 434.266 173.606 421.335 176.564ZM328.296 179.329C332.993 184.188 337.252 189.607 339.082 196.235C340.556 188.865 335.514 181.2 328.296 179.329ZM396.387 186.181C394.354 189.312 394.334 193.256 395.015 196.815C396.784 189.729 401.267 183.822 406.665 179.075C402.568 180.214 398.827 182.674 396.387 186.181ZM265.603 183.467C254.867 185.967 243.512 191.02 237.992 201.115C240.787 198.97 243.38 196.53 246.379 194.649C255.091 188.773 265.887 186.557 276.277 187.35C266.019 189.526 255.365 191.528 246.602 197.719C254.959 194.537 263.864 192.84 272.82 192.921C268.398 194.314 263.925 195.493 259.605 197.17C258.395 196.357 256.972 196.083 255.579 195.808C256.646 196.469 257.714 197.13 258.781 197.801C253.342 199.437 249.022 203.321 244.661 206.777C252.814 202.599 262.207 201.308 271.255 202.355C264.759 204.012 257.826 204.937 252.112 208.699C248.697 210.915 245.281 213.304 242.851 216.628C251.33 210.793 261.821 208.668 271.997 209.329C265.206 211.25 258.12 212.694 252.092 216.557C247.151 219.424 243.532 224.039 240.554 228.817C244.01 226.794 247.029 224.039 250.76 222.494C257.378 219.698 264.657 218.875 271.783 218.692C263.59 222.128 254.278 224.618 248.29 231.633C256.006 228.929 264.139 226.814 272.393 227.658C267.931 229.081 263.254 229.834 258.944 231.694C250.262 235.465 243.004 242.216 238.175 250.308C241.489 247.614 244.589 244.605 248.28 242.399C256.026 237.346 265.653 236.065 274.721 236.624C270.442 238.678 265.603 239.003 261.262 240.874C253.21 243.954 245.616 249.688 242.302 257.871C251.492 248.793 264.505 244.981 277.171 244.828C270.848 247.878 263.407 248.508 257.815 253.032C252.732 256.702 249.774 262.476 247.639 268.21C251.136 264.937 253.983 260.911 258.11 258.349C262.512 255.523 267.859 255.086 272.769 253.622C277.883 252.188 282.325 249.179 286.819 246.455C289.889 244.462 293.223 242.795 295.846 240.193C288.913 239.593 282.539 234.744 280.597 227.993C278.93 222.443 281.512 216.923 282.742 211.565C283.881 208.18 284.593 203.707 288.222 202.121C295.541 200.647 303.501 203.768 308.157 209.552C312.437 214.544 313.504 221.355 313.382 227.719C316.676 223.52 319.635 219.027 322.176 214.341C324.585 209.41 321.871 203.91 318.323 200.362C305.026 186.618 284.603 178.394 265.603 183.467ZM412.399 201.969C409.603 205.628 408.088 210.833 410.366 215.123C412.887 219.586 415.55 224.049 419.108 227.77C419.22 222.931 419.403 217.899 421.701 213.517C425.808 204.907 436.604 200.373 445.662 203.107C448.366 203.91 448.905 206.96 449.83 209.247C452.26 215.866 454.984 223.419 451.924 230.301C449.332 236.441 442.937 239.593 436.767 240.945C446.292 248.224 455.828 255.482 465.058 263.127C469.725 267.031 473.527 271.89 476.251 277.319C476.495 268.749 471.697 261.226 468.545 253.561C473.313 258.532 476.881 264.601 479.555 270.934C481.06 274.36 481.232 278.183 482.605 281.649C483.55 270.457 479.941 259.376 474.492 249.708C471.88 244.655 467.488 240.935 463.961 236.574C469.643 239.207 474.767 242.968 478.854 247.715C475.987 238.281 469.542 230.494 462.131 224.222C467.946 225.493 472.337 229.651 476.556 233.554C475.448 230.291 473.771 227.272 471.89 224.405C472.297 223.795 472.693 223.185 473.11 222.585C472.754 223.033 472.063 223.927 471.717 224.374C469.308 220.928 466.156 218.133 463.361 215.032C466.797 216.231 469.745 218.417 472.663 220.542C471.046 217.36 469.176 214.239 466.472 211.85C463.818 209.298 460.148 208.272 457.353 205.923C463.473 206.086 468.586 209.807 473.293 213.334C470.721 208.383 466.339 204.947 462.578 200.993C465.353 201.166 468.017 202.019 470.711 202.65C465.963 198.095 459.955 195.279 454.71 191.396C461.877 192.657 468.718 195.3 475.773 197.058C467.061 189.231 455.685 183.67 443.771 184.026C431.064 183.995 419.647 191.996 412.399 201.969ZM281.899 219.342C278.676 228.553 288.913 239.186 298.225 235.852C292.99 233.229 286.29 230.098 285.945 223.358C285.223 218.011 289.747 214.463 293.315 211.382C288.232 211.118 282.783 213.975 281.899 219.342ZM440.914 211.728C444.127 215.195 447.787 219.332 446.861 224.466C446.201 230.799 439.583 233.575 435.049 236.848C438.912 236.94 443.07 236.38 446.129 233.778C452.066 229.305 452.951 219.546 447.827 214.147C446.018 212.277 443.385 211.86 440.914 211.728ZM221.706 227.993C216.074 237.712 210.544 247.644 207.382 258.481C205.308 266.594 203.489 274.828 203.041 283.225C205.776 282.859 208.511 282.483 211.245 282.087C214.203 270.619 218.483 259.559 223.597 248.885C216.908 256.184 211.957 264.937 209.222 274.452C209.985 259.132 217.568 245.398 223.363 231.541C225.406 225.889 228.009 220.471 230.743 215.123C227.236 219.037 224.451 223.531 221.706 227.993ZM293.457 217.065C290.235 218.763 294.148 223.947 296.802 221.619C299.506 219.668 296.294 214.249 293.457 217.065ZM434.835 217.543C432.578 220.796 437.488 224.1 439.857 221.518C442.561 218.59 437.255 214.717 434.835 217.543ZM488.084 216.496C492.903 225.92 497.305 235.577 500.212 245.784C503.191 256.458 507.613 267.061 507.084 278.345C504.899 270.731 502.439 262.883 497.488 256.57C500.649 265.892 504.574 275.113 505.133 285.085C506.922 285.614 508.731 286.102 510.561 286.529C511.578 274.726 511.822 262.415 507.257 251.253C502.256 239.013 496.481 226.794 488.084 216.496ZM341.695 266.004C345.873 267.448 350.254 268.098 354.626 268.545C353.009 266.177 351.83 262.009 348.242 262.436C345.527 262.385 343.443 264.164 341.695 266.004ZM378.109 268.444C383.66 268.495 389.251 268.037 394.659 266.746C392.89 264.804 390.705 262.792 387.899 262.903C383.883 262.792 380.234 265.13 378.109 268.444ZM216.704 282.534C218.361 282.026 220.049 281.588 221.736 281.202C222.631 276.17 224.979 271.575 226.392 266.695C222.326 271.453 220.405 277.542 216.704 282.534ZM344.978 322.801C330.197 335.163 311.156 343.011 291.739 342.655C290.255 345.451 288.334 347.982 286.707 350.686C289.493 349.904 292.288 349.05 295.196 348.816C301.895 348.206 308.462 346.579 314.887 344.638C307.222 349.1 298.134 349.71 290.133 353.33C287.439 354.692 284.013 356.237 283.698 359.673C282.803 366.047 281.116 372.421 281.807 378.907C282.529 386.338 284.206 393.658 284.674 401.13C285.985 413.431 283.322 425.64 282.874 437.91C282.488 446.175 284.511 454.562 288.72 461.699C290.621 465.013 293.467 467.635 295.734 470.685C285.324 463.63 278.442 451.543 278.208 438.896C277.944 425.803 279.815 412.455 276.358 399.605C275.108 409.039 272.454 418.209 270.838 427.582C269.059 437.575 269.476 448.046 272.617 457.734C274.01 462.065 276.45 465.948 278.3 470.096C277.212 469.953 276.124 469.821 275.037 469.699C275.413 469.455 276.155 468.977 276.521 468.733C270.95 461.627 265.857 453.891 263.773 444.976C260.662 431.638 263.397 417.954 265.694 404.729C262.746 410.035 261.282 416.013 259.167 421.675C255.182 432.705 254.44 445.423 259.645 456.189C262.593 462.136 262.898 468.937 263.041 475.463C261.384 470.309 261.729 464.494 259.015 459.757C253.698 453.556 249.388 446.114 248.605 437.849C247.416 427.48 251.045 417.527 254.755 408.053C246.674 417.965 243.929 431.465 245.626 443.969C246.623 450.74 248.036 457.49 248.178 464.362C247.09 460.814 246.775 456.961 244.732 453.769C239.496 444.986 235.542 435.013 235.898 424.633C236.04 420.008 237.575 415.606 238.317 411.072C236.091 415.25 234.617 419.774 232.655 424.074C230.855 433.854 228.344 443.491 225.051 452.874C222.479 460.001 221.808 467.646 222.458 475.168C225.559 463.051 230.998 451.695 234.139 439.598C236.508 451.421 234.759 463.467 235.216 475.402C235.267 479.906 237.077 484.135 239.222 488.018C237.555 477.791 239.446 467.463 242.353 457.652C246.074 469.567 245.962 482.844 252.305 493.904C251.147 483.169 252.814 472.281 255.894 462.004C258.08 471.56 258.578 481.634 262.797 490.651C263.874 489.696 265.582 489.147 265.775 487.52C267.432 481.136 267.778 474.365 270.736 468.357C271.997 476.114 271.977 484.887 277.415 491.149C284.369 492.471 291.556 492.349 298.489 493.914C319.563 497.96 338.909 507.73 357.625 517.845C365.442 522.216 373.423 526.334 380.834 531.386C381.098 528.896 381.403 526.415 381.748 523.945C383.07 526.608 383.629 529.526 384.28 532.403C384.575 533.491 385.235 535.351 386.75 534.731C390.278 531.752 392.352 527.472 394.141 523.314C397.363 514.287 397.872 503.816 393.002 495.277C398.451 502.657 400.047 512.254 399.824 521.23C399.722 527.787 396.174 533.419 393.216 539.011C394.405 538.645 395.534 538.004 396.286 536.977C401.877 529.871 406.909 521.678 407.052 512.355C410.498 522.938 408.027 534.822 401.237 543.534C402.65 543.626 404.276 544.073 405.323 542.792C414.89 535.005 416.984 522.013 418.681 510.515C421.406 523.06 420.928 537.343 412.927 547.967C423.714 543.168 425.879 530.115 428.522 519.899C430.332 525.429 430.24 531.335 429.386 537.038C435.445 531.772 439.115 524.534 443.517 517.967C446.445 513.494 447.858 508.279 449.21 503.165C445.926 506.835 442.256 510.698 437.173 511.593C442.429 504.192 446.79 495.866 447.756 486.717C448.579 475.626 444.91 464.941 443.11 454.145C441.179 442.749 439.888 431.14 440.996 419.591C441.351 415.728 442.134 411.926 442.419 408.063C436.492 423.342 436.207 440.157 438.525 456.199C440.264 468.967 444.106 482.386 439.278 494.951C439.522 482.752 435.648 471.092 433.625 459.198C430.454 441.448 430.586 422.997 434.774 405.43C436.451 398.619 439.267 392.204 441.911 385.749C428.837 404.912 421.436 428.944 425.676 452.143C427.587 463.508 433.392 474.01 433.646 485.68C434.042 493.538 431.074 501.061 427.688 507.994C428.502 503.572 429.976 499.252 430.057 494.718C430.85 483.322 424.598 473.217 422.117 462.42C419.413 450.699 419.301 438.479 420.796 426.565C422.666 412.414 427.617 398.944 432.141 385.505C422.951 397.49 417.197 411.926 414.269 426.687C412.744 433.437 413.659 440.36 413.954 447.182C407.275 426.382 413.527 404.444 419.017 384.132C420.694 376.853 417.502 369.676 413.456 363.8C417.563 365.264 421.711 367.877 423.114 372.269C425.269 377.169 423.815 382.465 422.565 387.385C425.432 383.553 427.526 379.11 428.227 374.363C429.345 368.629 427.231 363.089 425.32 357.803C431.46 361.503 433.463 369.199 433.137 375.949C434.103 372.899 435.343 369.89 435.73 366.698C436.085 363.394 434.967 360.232 434.184 357.081C438.922 363.78 441.534 371.842 440.955 380.086C445.032 370.713 441.321 360.669 438.973 351.408C444.574 359.856 449.423 369.758 448.224 380.188C450.877 375.125 451.995 369.209 450.826 363.567C449.433 356.857 446.068 350.798 442.978 344.76C443.69 344.597 444.361 344.678 444.991 345.004C449.81 352.913 453.591 361.391 457.475 369.788C459.03 376.132 458.135 382.74 458.512 389.205C459.061 380.351 458.237 371.527 457.597 362.723C456.285 357.457 454.394 352.262 451.609 347.596C449.677 345.187 446.597 343.591 443.496 343.57C442.673 341.974 441.9 340.368 441.229 338.711C441.982 340.541 440.63 341.913 439.847 343.326C434.205 342.716 428.481 342.421 423.002 340.825C409.461 336.922 397.221 329.287 386.862 319.823C380.915 315.573 374.094 311.415 366.489 311.802C358.001 311.822 350.997 317.423 344.978 322.801ZM459.396 331.025C466.675 337.735 476.068 341.761 483.713 348.074C488.471 352.12 493.818 355.515 498.128 360.049C498.881 366.332 499.887 372.614 501.89 378.643C503.77 387.314 508.772 394.878 510.836 403.498C505.682 392.845 500.283 382.313 495.678 371.405C495.688 373.173 495.699 374.973 496.187 376.701C498.22 384.346 501.015 391.767 503.974 399.097C508.02 409.822 511.385 420.842 513.316 432.166C516.386 445.199 518.501 458.994 526.085 470.34C527.61 472.261 528.819 474.711 531.096 475.829C533.851 475.697 536.556 475.138 539.29 474.782C536.657 463.691 536.261 452.214 537.593 440.919C534.797 436.121 531.462 431.577 529.551 426.321C527.355 421.157 526.695 415.525 524.692 410.31C523.94 424.461 528.84 437.88 532.022 451.431C529.287 446.917 526.074 442.668 524.123 437.737C522.171 433.407 521.581 428.659 520.168 424.166C520.371 437.798 522.008 451.899 528.057 464.311C522.039 457.104 519.507 447.802 518.135 438.703C515.817 425.975 517.189 413.034 517.952 400.235C518.359 393.841 519.721 387.518 519.833 381.123C518.755 377.199 514.302 375.308 513.184 371.283C508.772 367.552 504.97 363.13 500.294 359.714C500.71 355.8 501.209 351.886 501.076 347.952C503.323 349.761 505.366 351.866 506.637 354.499C509.484 360.222 512.188 366.017 514.821 371.842C519.192 376.691 523.726 381.377 528.382 385.972C526.095 382.414 522.201 379.934 520.992 375.725C519.863 372.564 518.348 369.524 517.901 366.179C518.521 366.84 519.751 368.172 520.371 368.833C521.622 364.99 521.551 360.547 519.751 356.888C518.328 356.145 516.915 355.393 515.502 354.702C515.553 356.298 515.634 357.904 515.766 359.51C515.329 359.297 514.434 358.85 513.997 358.626C516.427 360.141 516.834 363.18 517.769 365.671C515.776 363.689 513.977 361.513 512.574 359.094C511.161 356.928 509.789 354.732 508.325 352.608C505.621 348.745 501.137 346.65 498.332 342.909C497.996 343.387 497.671 343.875 497.366 344.373C498.281 348.369 498.352 352.486 498.677 356.562C487.352 347.311 475.397 338.874 462.944 331.219C462.06 331.168 460.28 331.076 459.396 331.025ZM470.253 331.219C470.68 331.473 471.524 332.001 471.951 332.256C472.846 333.709 473.903 335.051 475.072 336.312C475.113 335.051 474.93 333.852 474.513 332.703C473.201 331.92 471.656 331.686 470.253 331.219ZM270.777 340.083C257.571 349.111 247.924 362.57 241.733 377.179C235.684 391.635 231.547 407.362 232.705 423.119C233.793 418.961 233.702 414.63 234.352 410.401C238.246 387.477 247.731 364.604 265.165 348.673C268.713 345.309 272.861 342.635 276.328 339.179C274.447 339.138 272.343 338.813 270.777 340.083ZM447.197 338.975C451.741 343.214 456.783 346.874 461.653 350.727C479.677 366.708 491.541 388.971 496.583 412.394C497.905 417.975 497.925 423.749 499.135 429.351C499.887 426.097 499.613 422.722 499.267 419.449C496.563 393.343 484.496 368.151 465.302 350.158C460.169 345.136 453.652 341.933 447.197 338.975ZM274.579 345.99C270.431 349.222 266.467 353.329 265.155 358.585C262.512 367.084 261.129 376.061 261.8 384.966C261.933 376.894 262.248 368.609 265.033 360.954C266.955 357.345 270.126 353.929 273.959 352.445C274.294 352.587 274.975 352.872 275.311 353.014L277.202 352.587C276.48 352.252 275.768 351.916 275.067 351.571C277.903 350.717 280.719 349.832 283.556 348.979C280.75 351.174 278.981 354.397 277.781 357.691C281.126 354.987 282.437 350.595 285.792 347.911C287.622 346.396 289.116 344.546 290.082 342.371C284.826 342.92 279.184 343.103 274.579 345.99ZM219.48 441.163C221.97 429.147 224.664 417.151 226.159 404.962C220.262 415.992 219.012 428.852 219.48 441.163ZM153.696 441.56C154.794 442.475 155.912 443.38 157.04 444.284C161.859 439.089 164.777 432.461 167.003 425.813C163.76 431.963 159.084 437.219 153.696 441.56ZM459.518 431.119C458.806 439.364 461.368 447.365 464.123 455.03C466.949 462.695 467.691 470.939 467.346 479.062C469.328 473.013 471.26 466.69 470.558 460.255C469.887 452.58 466.024 445.748 463.046 438.805C461.876 436.233 461.134 433.447 459.518 431.119ZM470.507 433.01C471.392 437.514 473.344 441.682 475.56 445.677C478.823 451.685 480.216 458.506 480.338 465.307C482.432 459.94 483.032 453.779 481.1 448.29C479.098 442.251 474.137 438.012 470.507 433.01ZM450.023 459.33C452.138 469.069 453.856 479.021 453.113 489.025C455.696 482.457 457.221 475.341 456.59 468.266C456.011 461.048 453.185 454.257 452.188 447.11C451.619 443.044 451.741 438.927 451.528 434.84C449.139 442.739 448.183 451.217 450.023 459.33ZM571.75 455.914C574.383 457.022 577.27 458.73 580.168 457.429C591.808 453.606 603.305 448.798 615.647 447.761C626.158 446.368 636.711 447.853 647.222 448.534C638.601 445.84 629.605 444.64 620.598 444.213C629.645 442.454 638.967 443.959 647.954 445.484C661.922 447.944 675.118 453.413 687.601 460.011C666.781 444.711 640.767 434.982 614.671 437.605C598.832 439.079 584.519 446.907 571.75 455.914ZM546.844 448.9C546.681 454.776 547.271 460.834 549.67 466.263C550.89 468.764 553.36 471.61 556.471 470.746C562.021 469.791 567.45 467.93 572.289 465.002C562.652 461.81 554.051 455.975 546.844 448.9Z" fill="#1E1B1C"/>
<path d="M260.52 296.542C272.434 293.676 284.033 289.447 296.212 287.678C298.601 287.515 301.295 286.844 303.389 288.43C295.379 290.717 287.042 291.541 278.981 293.635C272.851 294.845 266.853 296.675 260.662 297.508C260.642 299.755 260.621 302.022 260.591 304.289C250.435 308.132 240.269 312.076 230.794 317.444C226.982 319.64 223.17 321.815 219.317 323.94C218.483 317.301 217.202 310.734 216.104 304.136C230.55 298.25 245.596 294.133 260.743 290.504C260.652 292.507 260.56 294.519 260.52 296.542Z" fill="#1E1B1C"/>
<path d="M289.726 357.914C295.48 354.621 302.129 353.553 308.574 352.476C303.816 354.57 298.774 356.501 294.86 360.029C290.54 365.407 291.983 373.814 297.076 378.226C295.958 374.373 295.277 370.124 297.076 366.352C299.079 361.015 304.619 358.595 309.316 356.135C305.26 360.629 300.512 365.366 300.187 371.811C299.384 376.62 301.895 381.235 305.667 384.092C304.304 378.409 303.521 372.157 306.531 366.83C308.249 362.428 312.549 359.988 316.778 358.453C314.206 361.381 310.536 363.546 309.357 367.491C306.327 375.227 310.007 383.716 315.67 389.195C314.155 383.106 311.797 376.172 315.182 370.266C316.432 367.653 318.974 366.118 321.617 365.183C319.706 369.585 317.154 373.946 317.571 378.948C316.625 389.419 323.833 398.1 324.535 408.327C322.908 403.478 320.082 399.168 316.961 395.162C317.418 400.591 318.903 405.877 319.269 411.326C319.95 420.526 320.011 429.869 318.16 438.947C317.896 425.528 317.266 411.662 311.563 399.259C309.753 395.681 307.72 391.523 303.41 390.578C311.4 410.798 312.651 433.122 309.286 454.46C308.35 448.605 308.726 442.668 308.249 436.782C307.405 422.58 305.006 408.093 298.012 395.518C297.137 393.953 295.887 392.641 294.596 391.431C295.267 398.446 297.097 405.298 297.9 412.302C300.126 428.029 298.886 443.949 300.116 459.747C292.146 439.74 294.24 417.609 288.14 397.145C286.016 388.748 281.685 380.635 282.356 371.771C282.966 366.515 285.07 360.873 289.726 357.914Z" fill="#1E1B1C"/>
<path d="M369.214 380.239C365.259 375.186 365.097 367.816 368.929 362.652C369.57 369.148 372.691 374.871 375.883 380.422C378.241 384.691 379.166 389.551 379.542 394.369C377.082 388.961 372.772 384.864 369.214 380.239Z" fill="#1E1B1C"/>
<path d="M500.314 361.605C503.526 364.665 505.905 368.487 509.352 371.313C512.401 373.804 514.77 378.256 513.082 382.15C512.259 383.665 513.255 385.362 513.326 386.948C510.815 383.594 508.182 380.32 505.641 376.996C502.642 372.381 501.442 366.911 500.314 361.605ZM505.844 370.368C506.749 373.611 508.498 376.508 509.687 379.649C510.571 380.361 511.619 380.747 512.777 380.554C510.47 377.159 508.986 373.112 505.844 370.368Z" fill="#1E1B1C"/>
<path d="M373.585 364.095C378.516 369.88 384.676 374.82 387.909 381.865C390.034 386.135 390.847 391.177 389.231 395.762C388.509 392.733 388.529 389.49 387.045 386.694C383.08 378.866 375.232 373.062 373.585 364.095Z" fill="#1E1B1C"/>
<path d="M357.177 377.84C356.588 372.95 358.316 367.989 361.437 364.248C361.61 367.094 361.498 370.022 362.403 372.777C364.446 380.483 370.454 386.531 371.806 394.491C368.624 389.764 364.781 385.545 361.6 380.839C362.809 384.925 364.212 388.951 365.3 393.078C361.305 388.859 357.757 383.766 357.177 377.84Z" fill="#1E1B1C"/>
<path d="M398.502 365.529C404.551 367.226 410.742 370.581 412.816 376.945C415.184 382.424 412.744 388.178 410.274 393.129C408.251 397.745 407.296 402.736 406.513 407.697C406.309 401.404 406.93 395.132 407.885 388.931C409.115 380.056 404.134 371.913 398.502 365.529Z" fill="#1E1B1C"/>
<path d="M325.714 374.709C326.436 370.683 329.77 367.572 333.582 366.362C332.129 369.158 330.146 371.771 329.577 374.932C328.764 378.002 330.268 381.001 330.766 384C327.859 381.835 325.388 378.5 325.714 374.709Z" fill="#1E1B1C"/>
<path d="M346.93 379.863C346.473 375.359 349.492 371.486 353.07 369.148C351.058 377.545 352.471 386.227 355.205 394.278C351.871 389.876 347.316 385.718 346.93 379.863Z" fill="#1E1B1C"/>
<path d="M388.499 369.483C391.376 370.307 393.927 371.913 396.377 373.611C394.161 375.674 397.18 377.819 398.075 379.731C397.75 378.084 396.855 376.386 397.638 374.729C399.712 378.063 401.084 382.069 400.179 386.013C399.529 389.825 396.997 392.895 394.232 395.447C397.343 392.123 398.583 387.304 397.069 382.943C395.696 377.606 391.376 373.956 388.499 369.483Z" fill="#1E1B1C"/>
<path d="M341.054 389.307C336.744 384.783 335.544 377.128 340.099 372.33C338.899 378.012 338.838 383.858 341.054 389.307Z" fill="#1E1B1C"/>
<path d="M411.738 470.95C407.956 463.244 405.232 454.694 406.075 446.023C407.245 454.867 411.148 463.112 416.252 470.35C420.46 476.114 424.76 482.356 425.462 489.675C426.245 495.48 423.286 500.787 421.182 505.981C421.589 501.59 422.524 497.188 421.751 492.786C420.897 484.562 415.357 478.066 411.738 470.95Z" fill="#1E1B1C"/>
<path d="M393.032 467.249C390.318 461.821 389.058 455.731 389.169 449.672C390.45 455.619 392.321 461.516 395.513 466.741C400.098 474.487 407.875 479.865 411.911 487.988C413.73 491.485 414.483 495.389 414.981 499.272C413.375 495.836 412.114 492.196 409.877 489.106C404.581 481.573 397.018 475.697 393.032 467.249Z" fill="#1E1B1C"/>
<path d="M357.411 459.289C361.264 466.009 366.967 471.631 373.86 475.199C382.48 480.241 393.185 481.959 400.118 489.645C404.124 493.579 406.635 499.272 405.15 504.904C404.988 497.635 400.037 491.403 393.978 487.845C386.11 483.179 376.615 481.634 369.427 475.748C363.795 471.681 359.607 465.867 357.411 459.289Z" fill="#1E1B1C"/>
<path d="M353.081 475.392C355.846 479.479 359.16 483.281 363.46 485.792C369.621 489.665 377.042 490.641 383.416 494.067C388.834 496.964 391.437 504.192 388.519 509.733C387.299 505.819 385.978 501.58 382.562 499.008C377.164 494.748 370.17 493.335 364.497 489.523C359.333 486.178 355.154 481.217 353.081 475.392Z" fill="#1E1B1C"/>
<path d="M354.168 497.554C360.369 497.3 367.079 498.418 371.867 502.657C374.49 504.934 375.71 508.35 376.005 511.735C373.91 508.767 372.162 505.412 369.092 503.318C364.741 499.994 359.211 499.252 354.168 497.554Z" fill="#1E1B1C"/>
<path d="M252.56 516.259C257.266 512.813 263.315 511.959 269.008 512.01C263.447 514.704 256.636 515.954 252.895 521.362C250.994 523.884 251.533 527.096 252.001 529.993C250.73 528.519 249.073 527.208 248.514 525.276C247.843 521.789 249.845 518.313 252.56 516.259Z" fill="#1E1B1C"/>
<path d="M262.451 521.729C266.05 514.47 274.711 512.508 282.122 512.162C291.393 511.928 300.827 512.589 309.753 515.232C299.069 514.897 288.212 515.537 278.015 519.024C272.332 520.783 266.172 523.955 264.596 530.217C262.949 527.787 260.58 524.717 262.451 521.729Z" fill="#1E1B1C"/>
<path d="M303.003 534.029C309.987 530.207 318.364 530.725 325.978 531.833C342.416 534.67 357.808 541.461 372.843 548.445C381.972 552.857 391.193 557.096 400.169 561.813C387.421 557.929 375.161 552.541 362.393 548.678C352.369 545.547 342.183 542.823 331.803 541.176C324.575 540.22 316.971 539.59 309.967 542.071C307.313 542.813 304.233 544.124 301.671 542.447C298.591 540.353 299.933 535.442 303.003 534.029Z" fill="#1E1B1C"/>
<path d="M283.444 598.797C295.328 593.063 308.503 589.129 321.81 590.267C342.62 592.341 362.382 599.62 382.023 606.36C387.462 608.22 392.768 610.437 398.034 612.754C387.513 602.456 373.728 596.347 360.024 591.508C381.21 595.188 399.102 608.271 419.444 614.554C436.746 620.226 455.391 621.029 473.262 617.827C476.129 617.299 479.006 616.821 481.934 616.617C451.985 631.49 419.007 639.704 385.855 643.283C348.638 647.044 310.749 644.645 274.376 635.902C280.536 628.898 287.795 622.554 296.405 618.773C302.19 616.77 308.218 614.777 314.419 614.991C307.202 616.617 299.597 618.478 293.803 623.357C290.662 626.143 289.035 630.128 287.439 633.91C294.26 627.556 303.196 624.476 311.725 621.182C325.653 616.262 340.851 616.973 355.103 620.033C362.403 621.853 369.498 624.425 376.503 627.16C383.141 629.935 389.322 633.645 395.706 636.949C391.081 630.779 384.666 626.316 378.292 622.138C361.955 612.338 343.077 605.567 323.792 606.634C315.253 606.889 306.866 608.657 298.652 610.904C282.996 614.808 268.164 621.7 254.745 630.616C240.625 627.109 226.596 622.961 213.167 617.339C231.841 616.048 249.652 609.41 266.558 601.734L266.853 602.182C258.466 607.112 249.794 611.534 241.316 616.282C256.057 612.378 269.781 605.435 283.444 598.797ZM306.876 631.277C310.394 630.128 313.718 628.481 317.266 627.414C327.188 624.059 338.004 623.764 348.241 625.726C357.066 627.332 365.015 631.592 373.016 635.414C365.89 627.353 355.754 622.29 345.243 620.43C331.762 618.6 317.144 622.148 306.876 631.277Z" fill="#1E1B1C"/>
</svg>
